<svg width="633" height="160" viewBox="0 0 633 160" fill="none" xmlns="http://www.w3.org/2000/svg">
<path d="M2 98.1875C1.875 98.1875 1.625 98.125 1.3125 98C0.9375 97.9375 0.625 97.6875 0.375 97.25C0.125 96.8125 0 96.4375 0 96.0625C0 95.625 0.125 95.25 0.4375 94.875C2.0625 92.8125 3.875 90 5.9375 86.5625C7.9375 83.125 9.375 80.1875 10.3125 77.8125C10.75 76.875 11.375 76.375 12.25 76.375C12.5625 76.375 12.8125 76.4375 13.0625 76.5625C14 76.875 14.4375 77.5625 14.4375 78.5625C14.4375 79 14.3125 79.4375 14 79.875C11.5 83.0625 9.3125 86.5625 7.375 90.375L6.625 91.75C9.25 90.3125 13.5625 87.375 19.4375 83.0625C24.125 79.75 27.1875 77.75 28.625 77.125C29.6875 76.5625 30.6875 76.3125 31.75 76.3125C32.4375 76.3125 32.9375 76.625 33.375 77.25C33.5625 77.5625 33.6875 78 33.6875 78.4375C33.6875 79.0625 33.5625 79.6875 33.25 80.25C33 80.8125 30.75 84.5625 26.625 91.4375C28.0625 90.375 30.125 88.6875 32.9375 86.375C33.125 86.125 34.3125 85.0625 36.5 83.25C40.875 79.5625 43.75 77.6875 45.125 77.6875C45.625 77.6875 46 78 46.3125 78.5625C46.4375 78.8125 46.5 79.0625 46.5 79.375C46.4375 81.0625 45.1875 83.875 42.75 87.875C41.3125 89.9375 40.625 91.5 40.625 92.4375C40.625 93.125 41.125 93.4375 42.1875 93.4375C44.875 93.4375 49.125 92.1875 54.9375 89.6875C63.8125 85.8125 71.3125 81.875 77.5625 77.8125C77.75 77.6875 77.9375 77.625 78.125 77.625C78.5625 77.625 78.875 77.75 79.0625 78.0625C79.25 78.375 79.375 78.6875 79.375 78.875C79.375 79.1875 79.1875 79.5 78.8125 79.8125L63.375 87.5625C52.6875 92.75 45.6875 95.375 42.4375 95.375C40.1875 95.375 38.9375 94.5 38.625 92.75C38.625 91.1875 39.4375 89.1875 41.0625 86.8125C43.25 83.1875 44.5 80.6875 44.8125 79.375C43.25 79.375 39.4375 82.1875 33.375 87.875C29.0625 92.1875 26.3125 94.375 25.125 94.375C24.8125 94.375 24.5 94.3125 24.25 94.125C23.9375 93.8125 23.75 93.4375 23.75 93.125C23.75 91.8125 25.9375 87.4375 30.375 80L30.9375 78.9375C30.25 79.0625 29.125 79.5 27.625 80.1875C23.6875 81.9375 19.9375 84 16.3125 86.375C11.125 89.625 7.3125 92.8125 4.875 95.875C4.4375 96.3125 4.25 96.5625 4.25 96.6875C4.1875 96.8125 4.1875 96.9375 4.125 97L4 96.9375L3.5625 97.625C2.875 98 2.375 98.1875 2 98.1875ZM74.18 97.1875H73.93C73.3675 97.1875 72.8675 97.0625 72.3675 96.8125C71.7425 96.3125 71.43 95.625 71.43 94.875C71.43 93.125 73.055 90.1875 76.2425 86C81.2425 79.3125 85.68 75.9375 89.68 75.9375C91.2425 76.0625 92.4925 77.0625 93.3675 78.8125C93.805 79.75 94.1175 80.5625 94.3675 81.25C95.68 80.25 96.93 79.1875 98.1175 78.0625C98.305 77.875 98.555 77.8125 98.7425 77.8125C99.1175 77.8125 99.3675 77.9375 99.555 78.125C99.7425 78.375 99.805 78.625 99.805 78.9375C99.3675 80.875 99.1175 82.9375 99.1175 85.1875C99.1175 89 100.118 91.5 102.18 92.5625C103.118 93 104.18 93.25 105.305 93.25C107.118 93.25 108.993 92.9375 110.93 92.3125C118.305 89.6875 125.43 85.125 132.18 78.625C132.368 78.4375 132.618 78.375 132.868 78.375C133.118 78.375 133.368 78.4375 133.555 78.625C133.743 78.8125 133.805 79.0625 133.805 79.3125C133.805 79.5625 133.743 79.8125 133.555 80C124.93 85.5625 119.43 89.0625 117.055 90.4375C112.055 93.4375 107.868 94.9375 104.555 94.9375C101.868 94.9375 99.8675 93.9375 98.6175 91.875C97.4925 90.125 96.93 87.875 96.93 85.1875C96.93 83.875 97.055 82.5625 97.2425 81.25L94.8675 83L94.9925 83.6875C94.9925 84.75 94.43 85.3125 93.305 85.3125C92.9925 85.3125 92.68 85.1875 92.3675 84.9375L86.1175 89.8125C80.3675 94.4375 76.3675 96.875 74.18 97.1875ZM75.1175 93.75C76.18 93.3125 77.305 92.8125 78.43 92.1875C82.7425 89.75 87.18 86.8125 91.7425 83.3125H91.805V83.1875C91.93 82.8125 91.9925 82.1875 91.9925 81.375C91.805 78.6875 90.93 77.3125 89.3675 77.3125C88.555 77.3125 87.555 77.875 86.4925 78.9375C85.3675 80.0625 84.4925 81 83.805 81.6875C82.805 82.8125 81.18 84.875 78.93 87.9375C78.68 88.375 78.43 88.75 78.1175 89.125C76.43 91.5625 75.43 93.125 75.1175 93.75ZM127.235 99.25L126.485 99.1875L126.423 99.125H126.173C126.173 99.0625 126.173 99.0625 126.11 99.0625C126.048 99.0625 125.985 99.0625 125.923 99C125.798 99 125.673 98.9375 125.485 98.75C125.423 98.75 125.235 98.625 124.985 98.3125C124.548 97.875 124.298 97.375 124.298 96.75C124.298 96.625 124.298 96.5 124.36 96.4375V96.125C124.548 95.625 124.86 95.125 125.36 94.625C125.423 94.625 125.423 94.625 125.423 94.5625C126.485 93.8125 128.923 92.6875 132.735 91.25C138.485 89.25 141.735 88.1875 142.485 88.0625V88C141.985 87.0625 141.298 86 140.423 84.75C138.548 82.125 137.61 80 137.61 78.375C137.61 76.5 138.298 75.0625 139.673 74.0625C140.61 73.375 141.798 72.75 143.173 72.3125C146.735 71.125 149.548 70.5 151.548 70.5C152.235 70.5 152.86 70.6875 153.36 71.0625C153.798 71.4375 154.048 71.875 154.048 72.5C154.048 73.0625 153.673 74.125 152.86 75.6875C152.673 76.0625 152.423 76.5 152.173 77C151.923 77.4375 151.548 77.6875 150.985 77.6875C150.798 77.6875 150.673 77.6875 150.485 77.5625C149.985 77.3125 149.735 76.9375 149.735 76.4375C149.735 75.9375 149.985 75.5625 150.423 75.3125C151.298 74.8125 151.985 74.0625 152.423 73C152.485 72.875 152.485 72.6875 152.485 72.375C152.36 72.25 152.11 72.1875 151.798 72.1875C151.048 72.1875 150.235 72.375 149.298 72.75C147.173 73.4375 145.485 74.1875 144.235 74.875C143.298 75.25 142.548 75.75 141.86 76.5C141.423 76.9375 141.235 77.375 141.235 77.75C141.235 78.75 142.11 80.3125 143.798 82.4375C146.048 85.3125 147.235 87.625 147.298 89.5C147.298 90 147.173 90.5 147.048 91.0625C150.173 92.625 153.735 93.4375 157.61 93.4375C160.298 93.4375 162.985 93 165.61 92.1875C172.86 89.8125 178.923 85.375 183.798 78.875C184.36 74.8125 185.298 70.875 186.485 67C190.36 54.625 196.11 41.9375 203.798 28.875C198.548 29.4375 193.423 30.5625 188.485 32.25C188.235 32.3125 188.048 32.375 187.798 32.375C187.485 32.375 187.11 32.25 186.735 32.0625C185.985 31.6875 185.673 31.125 185.673 30.25C185.673 29.9375 185.798 29.5625 185.985 29.125C186.298 28.4375 186.86 28.125 187.673 28.125C188.923 28.0625 190.173 27.9375 191.423 27.75L200.048 26.9375C203.485 26.6875 205.173 26.5625 205.173 26.5C210.61 17.4375 215.923 10.3125 221.173 5.0625C223.548 2.6875 226.048 1 228.548 0.125C229.11 0.0625 229.548 0 229.86 0C231.485 0 232.61 0.6875 233.36 2C233.61 2.625 233.798 3.3125 233.798 4C233.735 6.4375 232.61 9.9375 230.423 14.3125C228.61 17.8125 226.298 21.9375 223.423 26.5625L223.923 26.625C226.11 26.625 230.548 27.125 237.298 28.125C237.923 28.1875 238.423 28.4375 238.735 28.875C239.048 29.3125 239.173 29.8125 239.173 30.3125V30.5C238.923 31.75 238.235 32.3125 237.11 32.3125C236.798 32.3125 236.548 32.3125 236.36 32.25C230.985 30.375 226.173 29.25 221.985 28.875C217.36 36.25 211.11 45.6875 203.298 57.125C198.235 64.5625 193.298 72.125 188.36 79.6875C188.11 80.5 187.548 81.0625 186.735 81.5L185.548 82.375C185.485 82.4375 185.423 83.125 185.423 84.375C185.423 88.3125 186.423 91.25 188.36 93C189.735 94.1875 191.798 94.75 194.61 94.75C197.548 94.75 201.485 93.9375 206.298 92.1875C215.36 88.875 224.548 84.0625 233.798 77.5625C234.11 77.375 234.36 77.25 234.735 77.25C235.298 77.25 235.673 77.5 235.985 77.875C236.235 78.25 236.423 78.5625 236.423 78.875C236.423 79.3125 236.11 79.8125 235.548 80.375C228.11 84.625 220.985 88.1875 214.298 91.0625C205.673 94.75 198.985 96.625 194.173 96.625C193.485 96.625 192.423 96.5 190.985 96.25C189.548 96 188.298 95.375 187.11 94.375C184.673 92.25 183.485 88.9375 183.485 84.5V83.875C181.423 85.3125 179.36 86.6875 177.173 88C169.798 92.5 162.298 94.75 154.735 94.75C151.235 94.75 148.235 94.375 145.61 93.5625C143.985 95.3125 141.235 96.625 137.235 97.5C131.985 98.6875 128.673 99.25 127.235 99.25ZM186.548 75.625C191.923 69.375 197.673 62 203.923 53.4375C210.173 44.8125 215.673 36.625 220.36 28.6875C218.048 28.4375 215.798 28.3125 213.485 28.3125C211.298 28.3125 209.423 28.375 207.798 28.4375C202.923 36.3125 198.485 44.5625 194.485 53.1875C190.798 61.0625 188.173 68.4375 186.61 75.1875L186.548 75.625ZM221.673 26.4375C227.61 16.3125 230.735 9 231.11 4.5C231.11 3.5625 230.86 3 230.298 2.875H229.673C229.61 2.9375 229.61 2.9375 229.548 2.9375C229.485 2.9375 229.423 2.9375 229.235 3C227.548 3.5625 225.61 5 223.423 7.3125C219.235 11.5 214.548 17.6875 209.423 25.8125L209.11 26.375C210.86 26.3125 212.548 26.25 214.298 26.25C216.735 26.25 219.235 26.3125 221.673 26.4375ZM240.602 96.5C239.727 96.5 238.79 96.4375 237.915 96.3125C235.977 96.0625 234.602 95.3125 233.727 94.0625C233.477 93.625 233.29 93.375 233.227 93.1875C233.165 93 233.165 92.625 233.165 92C233.165 89.125 236.415 84.875 242.852 79.25C242.477 79.25 242.29 79.125 242.29 78.8125C242.352 78.5625 242.54 78.4375 242.79 78.4375L243.665 78.5625C246.915 75.5 250.602 73 254.727 71.0625C256.852 70.125 258.665 69.6875 260.227 69.6875C261.602 69.6875 262.54 70.0625 263.102 70.9375C263.29 71.25 263.352 71.5625 263.352 71.875C263.352 73 262.727 74.0625 261.477 75.0625C260.852 75.5625 259.79 76.125 258.352 76.875C258.04 77 257.79 77.0625 257.665 77.1875C257.477 77.25 257.102 77.375 256.54 77.5625C253.477 78.625 250.415 79.1875 247.352 79.3125C241.727 83.8125 238.102 87.5 236.352 90.375C235.915 91.0625 235.727 91.6875 235.727 92.25C235.727 93.625 237.54 94.25 241.29 94.25C245.29 94.25 250.54 93.4375 256.915 91.875C269.477 88.6875 281.415 84.0625 292.602 78.0625C292.727 78 292.852 77.9375 292.977 77.9375C293.54 77.9375 293.852 78.25 293.852 78.8125C293.852 79.1875 293.727 79.4375 293.415 79.625C284.102 84.1875 274.54 88 264.727 91.1875C259.415 92.875 254.415 94.25 249.727 95.25C246.165 96.0625 243.165 96.5 240.602 96.5ZM248.227 78.5625C251.727 78.3125 254.852 77.5 257.727 76.125C258.915 75.5625 259.915 74.9375 260.665 74.1875C261.477 73.4375 261.915 72.8125 261.915 72.125C261.915 71.9375 261.915 71.8125 261.852 71.75C261.727 71.625 261.602 71.5625 261.415 71.5C261.227 71.4375 260.977 71.4375 260.727 71.4375C258.165 71.5625 253.977 73.9375 248.227 78.5625ZM309.47 95.1875L307.783 95.125C306.033 95 304.658 94.4375 303.533 93.3125C302.47 92.25 301.908 90.75 301.908 88.8125C301.908 86.375 302.533 83.625 303.783 80.5C303.533 80.5 303.345 80.5 303.283 80.5625L302.158 80.625C298.97 80.625 297.408 79.4375 297.408 77C297.47 76.8125 297.533 76.5625 297.533 76.375C297.595 76.375 297.595 76.3125 297.658 76.1875C298.033 75.3125 298.72 74.8125 299.658 74.8125C300.72 74.8125 301.345 75.375 301.658 76.4375L302.783 76.375C305.47 75.8125 307.158 75.5 307.72 75.4375C308.095 75.4375 308.533 75.5625 308.97 75.875C309.408 76.1875 309.595 76.6875 309.595 77.375C309.595 77.875 309.47 78.3125 309.158 78.6875C307.595 80.625 306.283 82.8125 305.22 85.3125C304.595 86.9375 304.283 88.3125 304.283 89.4375C304.283 92.1875 306.22 93.5625 310.158 93.5625C312.845 93.5625 316.033 92.9375 319.72 91.75C329.158 88.6875 338.845 83.9375 348.783 77.4375C349.033 77.3125 349.345 77.1875 349.595 77.1875C350.22 77.1875 350.595 77.375 350.845 77.8125C351.095 78.1875 351.283 78.5 351.283 78.8125C351.283 79.4375 350.908 79.9375 350.283 80.25L335.345 86.875C323.033 92.4375 314.408 95.1875 309.47 95.1875ZM312.962 159.625H312.65C312.212 159.625 311.837 159.5 311.4 159.25C310.837 158.812 310.525 158.25 310.525 157.562C310.525 157.188 310.65 156.75 310.837 156.375C310.9 156.375 310.962 156.312 310.962 156.25C315.212 149.812 321.15 140.188 328.837 127.438C340.9 107.062 350.025 90.5 356.275 77.8125C356.65 77 357.275 76.5625 358.15 76.5625C358.462 76.5625 358.775 76.6875 359.087 76.8125C359.9 77.1875 360.337 77.8125 360.337 78.75C360.337 79.25 360.212 79.625 359.9 79.875C353.087 90.125 345.15 103.062 336.15 118.812C333.025 124.25 330.9 128 329.712 130.125C346.087 107.875 358.337 92.9375 366.4 85.25C371.9 79.5 376.15 76.5625 379.212 76.5625C380.087 76.5625 380.962 76.8125 381.712 77.25C382.462 77.6875 382.837 78.375 382.837 79.3125C382.837 80.5 382.462 81.6875 381.65 82.875C379.587 86.0625 376.4 89 372.212 91.625C370.087 92.9375 368.15 93.875 366.587 94.5625C364.962 95.25 362.712 95.9375 359.712 96.625C360.587 96.875 362.025 97 364.025 97C368.275 97 373.212 96.1875 378.837 94.5C390.775 91.0625 401.837 85.6875 412.15 78.375L412.4 78.3125C412.65 78.3125 412.837 78.375 412.9 78.5C413.025 78.625 413.025 78.75 413.025 78.9375C413.025 79.125 412.9 79.25 412.775 79.3125C398.025 89.125 382.712 95.25 366.837 97.75C364.837 98.125 362.712 98.375 360.525 98.4375C359.212 98.4375 358.15 98.3125 357.4 98C356.9 97.625 356.65 97.3125 356.65 97.0625C356.65 97.0625 356.587 97.0625 356.587 97.125C356.587 97.1875 356.525 97.1875 356.462 97.25C351.275 103.625 346.275 110.188 341.525 117C331.962 130.5 322.962 144.312 314.525 158.5C314.525 158.562 314.525 158.562 314.462 158.562C314.212 159.188 313.712 159.5 312.962 159.625ZM358.775 94.5C359.462 94.25 360.15 94 360.775 93.8125C364.212 92.8125 367.525 91.3125 370.837 89.3125C374.837 86.875 377.837 84.3125 379.775 81.625C380.4 80.6875 380.712 80 380.712 79.4375C380.712 78.875 380.087 78.5625 378.837 78.5625C377.462 78.625 375.9 79.1875 374.212 80.1875C369.587 82.9375 364.462 87.75 358.775 94.5ZM422.517 96.625C421.205 96.625 419.83 96.375 418.455 95.875C415.767 94.8125 414.392 92.5625 414.392 89.1875C414.392 86.5 415.58 82.8125 417.892 78.1875C418.267 77.25 418.892 76.8125 419.767 76.8125C420.892 77.125 421.517 77.5 421.642 77.9375C421.705 78.1875 421.767 78.4375 421.767 78.6875C421.767 79.1875 421.642 79.6875 421.455 80.0625C420.642 81.1875 419.955 82.375 419.392 83.5625C418.08 86.0625 417.392 88.1875 417.392 89.9375C417.392 92.8125 419.392 94.25 423.33 94.25C428.767 94.25 435.892 92.625 444.705 89.3125C453.142 86.125 461.267 82.4375 469.017 78.125C469.142 78.0625 469.267 78.0625 469.455 78.0625C469.955 78.0625 470.205 78.3125 470.205 78.8125C470.205 79.125 470.08 79.3125 469.767 79.5C456.705 85.4375 448.517 89.125 445.142 90.5C435.142 94.5625 427.58 96.625 422.517 96.625ZM429.08 63.875C428.455 63.875 427.892 63.6875 427.33 63.3125C426.767 62.9375 426.455 62.625 426.455 62.5C426.267 62.25 426.205 62 426.205 61.8125C426.205 61.375 426.392 61 426.705 60.8125C427.017 60.625 427.267 60.5 427.517 60.5C427.955 60.5 428.33 60.6875 428.517 61.125V61C428.705 61.0625 429.017 61.0625 429.58 61.0625C429.767 61.0625 429.955 61.0625 430.08 61.0625C430.205 61 430.33 61 430.392 61C430.455 61 430.58 61 430.705 60.9375C430.767 60.875 430.892 60.875 431.017 60.875C431.08 60.875 431.205 60.875 431.392 60.8125C431.517 60.75 431.705 60.75 431.892 60.75L432.017 60.6875C432.455 60.6875 432.767 60.9375 432.83 61.4375C432.83 62 432.205 62.6875 431.017 63.375C431.017 63.4375 431.017 63.4375 430.955 63.4375C430.392 63.75 429.767 63.875 429.08 63.875ZM471.698 96.5C470.823 96.5 469.885 96.4375 469.01 96.3125C467.073 96.0625 465.698 95.3125 464.823 94.0625C464.573 93.625 464.385 93.375 464.323 93.1875C464.26 93 464.26 92.625 464.26 92C464.26 89.125 467.51 84.875 473.948 79.25C473.573 79.25 473.385 79.125 473.385 78.8125C473.448 78.5625 473.635 78.4375 473.885 78.4375L474.76 78.5625C478.01 75.5 481.698 73 485.823 71.0625C487.948 70.125 489.76 69.6875 491.323 69.6875C492.698 69.6875 493.635 70.0625 494.198 70.9375C494.385 71.25 494.448 71.5625 494.448 71.875C494.448 73 493.823 74.0625 492.573 75.0625C491.948 75.5625 490.885 76.125 489.448 76.875C489.135 77 488.885 77.0625 488.76 77.1875C488.573 77.25 488.198 77.375 487.635 77.5625C484.573 78.625 481.51 79.1875 478.448 79.3125C472.823 83.8125 469.198 87.5 467.448 90.375C467.01 91.0625 466.823 91.6875 466.823 92.25C466.823 93.625 468.635 94.25 472.385 94.25C476.385 94.25 481.635 93.4375 488.01 91.875C500.573 88.6875 512.51 84.0625 523.698 78.0625C523.823 78 523.948 77.9375 524.073 77.9375C524.635 77.9375 524.948 78.25 524.948 78.8125C524.948 79.1875 524.823 79.4375 524.51 79.625C515.198 84.1875 505.635 88 495.823 91.1875C490.51 92.875 485.51 94.25 480.823 95.25C477.26 96.0625 474.26 96.5 471.698 96.5ZM479.323 78.5625C482.823 78.3125 485.948 77.5 488.823 76.125C490.01 75.5625 491.01 74.9375 491.76 74.1875C492.573 73.4375 493.01 72.8125 493.01 72.125C493.01 71.9375 493.01 71.8125 492.948 71.75C492.823 71.625 492.698 71.5625 492.51 71.5C492.323 71.4375 492.073 71.4375 491.823 71.4375C489.26 71.5625 485.073 73.9375 479.323 78.5625ZM524.19 96.1875L521.003 96.125C519.94 96.0625 518.878 95.75 517.753 95.125C516.815 94.5625 516.378 93.75 516.378 92.5625C516.378 90.75 518.378 87.875 522.378 83.875C526.628 79.5 530.815 76.4375 534.878 74.5625C536.065 74 537.315 73.6875 538.628 73.6875L539.753 73.875C540.253 74.0625 540.69 74.4375 541.19 74.875C541.19 74.9375 541.253 75.0625 541.315 75.125C541.44 75.1875 541.565 75.6875 541.69 76.625C541.315 78.1875 540.44 79.5 539.128 80.5625C538.44 81 538.003 81.1875 537.628 81.1875C537.065 81.1875 536.628 81 536.315 80.625C535.94 80.1875 535.753 79.8125 535.753 79.375C535.753 79.375 535.815 79.1875 535.815 78.8125C535.878 78.5 536.19 78.125 536.878 77.6875C537.378 77.5 537.753 77.1875 538.128 76.875C535.753 77 532.565 78.625 528.565 81.75C521.69 87 518.253 90.625 518.253 92.75C518.253 93.0625 518.44 93.375 518.815 93.625C519.753 94.25 521.253 94.5625 523.378 94.5625C527.815 94.5625 533.94 93.4375 541.753 91.1875C545.753 90.0625 549.565 88.8125 553.19 87.4375C561.378 84.3125 568.69 81 575.065 77.4375C575.315 77.3125 575.628 77.1875 575.878 77.1875C576.003 77.1875 576.19 77.25 576.44 77.3125C576.753 77.375 576.94 77.625 577.128 77.9375C577.315 78.25 577.378 78.625 577.378 78.875C577.378 79.5625 577.065 80.0625 576.44 80.25C552.253 90 534.815 95.3125 524.19 96.1875ZM578.932 96.5C578.057 96.5 577.12 96.4375 576.245 96.3125C574.307 96.0625 572.932 95.3125 572.057 94.0625C571.807 93.625 571.62 93.375 571.557 93.1875C571.495 93 571.495 92.625 571.495 92C571.495 89.125 574.745 84.875 581.182 79.25C580.807 79.25 580.62 79.125 580.62 78.8125C580.682 78.5625 580.87 78.4375 581.12 78.4375L581.995 78.5625C585.245 75.5 588.932 73 593.057 71.0625C595.182 70.125 596.995 69.6875 598.557 69.6875C599.932 69.6875 600.87 70.0625 601.432 70.9375C601.62 71.25 601.682 71.5625 601.682 71.875C601.682 73 601.057 74.0625 599.807 75.0625C599.182 75.5625 598.12 76.125 596.682 76.875C596.37 77 596.12 77.0625 595.995 77.1875C595.807 77.25 595.432 77.375 594.87 77.5625C591.807 78.625 588.745 79.1875 585.682 79.3125C580.057 83.8125 576.432 87.5 574.682 90.375C574.245 91.0625 574.057 91.6875 574.057 92.25C574.057 93.625 575.87 94.25 579.62 94.25C583.62 94.25 588.87 93.4375 595.245 91.875C607.807 88.6875 619.745 84.0625 630.932 78.0625C631.057 78 631.182 77.9375 631.307 77.9375C631.87 77.9375 632.182 78.25 632.182 78.8125C632.182 79.1875 632.057 79.4375 631.745 79.625C622.432 84.1875 612.87 88 603.057 91.1875C597.745 92.875 592.745 94.25 588.057 95.25C584.495 96.0625 581.495 96.5 578.932 96.5ZM586.557 78.5625C590.057 78.3125 593.182 77.5 596.057 76.125C597.245 75.5625 598.245 74.9375 598.995 74.1875C599.807 73.4375 600.245 72.8125 600.245 72.125C600.245 71.9375 600.245 71.8125 600.182 71.75C600.057 71.625 599.932 71.5625 599.745 71.5C599.557 71.4375 599.307 71.4375 599.057 71.4375C596.495 71.5625 592.307 73.9375 586.557 78.5625Z" fill="#9B9B9B"/>
</svg>
