<svg width="90" height="99" viewBox="0 0 90 99" fill="none" xmlns="http://www.w3.org/2000/svg">
<path d="M86.1857 98.2507C86.2412 98.2507 86.296 98.2383 86.3461 98.2146C86.3963 98.1908 86.4405 98.1562 86.4757 98.1133C86.5108 98.0704 86.536 98.0202 86.5494 97.9663C86.5628 97.9125 86.5641 97.8563 86.5532 97.8019C83.2195 81.0482 76.737 65.5607 67.2857 51.7669C46.6482 21.6482 17.517 8.46444 1.98947 3.28694C1.94278 3.2713 1.89346 3.26503 1.84433 3.26851C1.79521 3.27199 1.74725 3.28514 1.70322 3.30721C1.6592 3.32928 1.61998 3.35984 1.5878 3.39712C1.55563 3.4344 1.53113 3.47767 1.51572 3.52444C1.50005 3.57106 1.49373 3.62031 1.49713 3.66937C1.50053 3.71843 1.51357 3.76634 1.53551 3.81036C1.55746 3.85437 1.58788 3.89361 1.62502 3.92585C1.66217 3.95808 1.70531 3.98267 1.75198 3.99819C17.1907 9.14569 46.1532 22.2532 66.667 52.1907C76.0607 65.8994 82.5032 81.2944 85.817 97.9482C85.8338 98.0334 85.8796 98.1101 85.9466 98.1652C86.0136 98.2204 86.0989 98.2506 86.1857 98.2507Z" fill="#B49E64"/>
<path d="M71.9158 60.1934C71.9792 60.1932 72.0415 60.177 72.0969 60.1463C72.1524 60.1156 72.1991 60.0714 72.2329 60.0178C72.2667 59.9641 72.2864 59.9029 72.2902 59.8396C72.294 59.7763 72.2817 59.7132 72.2546 59.6559C68.8333 52.5271 57.0196 48.4259 37.1433 47.4671C22.4221 46.7534 8.50957 48.1284 8.36832 48.1421C8.2695 48.1523 8.1787 48.201 8.1157 48.2778C8.0527 48.3547 8.02264 48.4533 8.03207 48.5521C8.05332 48.7584 8.21457 48.9184 8.44331 48.8884C8.99332 48.8347 63.6858 43.5421 71.5771 59.9809C71.6079 60.0446 71.656 60.0983 71.7159 60.1359C71.7758 60.1735 71.8451 60.1934 71.9158 60.1934ZM79.2246 75.0959C79.2541 75.0959 79.2835 75.0921 79.3121 75.0846C83.1646 74.1596 85.9496 72.0309 87.5871 68.7597C92.6783 58.5959 85.2021 40.9571 84.8808 40.2121C84.8595 40.1618 84.8272 40.1169 84.7863 40.0806C84.7455 40.0442 84.6971 40.0175 84.6446 40.0021C84.5922 39.9861 84.5369 39.9818 84.4827 39.9896C84.4284 39.9974 84.3766 40.017 84.3308 40.0471C84.2758 40.0834 82.9446 40.9684 81.3346 42.9359C81.2899 42.9915 81.2617 43.0586 81.2532 43.1295C81.2447 43.2004 81.2563 43.2722 81.2867 43.3368C81.317 43.4014 81.3649 43.4562 81.4249 43.4949C81.4848 43.5337 81.5544 43.5548 81.6258 43.5559C81.694 43.5562 81.7609 43.5382 81.8197 43.5036C81.8784 43.4691 81.9267 43.4194 81.9596 43.3597C82.9821 42.1184 83.8908 41.3309 84.3758 40.9496C85.5071 43.7696 91.4221 59.4396 86.9183 68.4259C85.3833 71.4896 82.7671 73.4846 79.1383 74.3572C79.0487 74.3783 78.97 74.4316 78.9171 74.5071C78.8643 74.5825 78.8411 74.6747 78.8519 74.7662C78.8627 74.8576 78.9068 74.9419 78.9758 75.0029C79.0447 75.064 79.1337 75.0975 79.2258 75.0971L79.2246 75.0959Z" fill="#B49E64"/>
<path d="M78.7123 73.8459C78.7711 73.846 78.8291 73.8323 78.8816 73.8058C78.9342 73.7793 78.9797 73.7409 79.0146 73.6935C79.0496 73.6462 79.0729 73.5913 79.0827 73.5333C79.0925 73.4753 79.0885 73.4158 79.071 73.3597C77.121 67.0047 76.4235 61.1534 76.996 55.9684C77.0035 55.9185 77.0007 55.8675 76.988 55.8187C76.9753 55.7698 76.9529 55.724 76.922 55.684C76.8912 55.6441 76.8526 55.6107 76.8086 55.586C76.7645 55.5613 76.716 55.5458 76.6658 55.5403C76.6156 55.5348 76.5648 55.5395 76.5165 55.5542C76.4681 55.5688 76.4233 55.593 76.3845 55.6254C76.3458 55.6578 76.314 55.6977 76.2911 55.7427C76.2681 55.7876 76.2545 55.8368 76.251 55.8872C75.666 61.1747 76.3748 67.1272 78.3535 73.5797C78.3771 73.6564 78.4246 73.7236 78.4892 73.7713C78.5538 73.819 78.632 73.846 78.7123 73.8459Z" fill="#B49E64"/>
<path d="M79.0076 74.3719C79.0357 74.3719 79.0634 74.3656 79.0887 74.3535C79.114 74.3414 79.1363 74.3238 79.1539 74.3019C85.7276 66.1531 83.6764 47.7981 83.6564 47.6131C83.6426 47.5106 83.5464 47.4281 83.4476 47.4494C83.423 47.4522 83.3993 47.4598 83.3777 47.4718C83.356 47.4838 83.337 47.5 83.3217 47.5194C83.3063 47.5388 83.295 47.5611 83.2883 47.5849C83.2816 47.6087 83.2797 47.6336 83.2826 47.6581C83.3051 47.8406 85.3376 66.0406 78.8614 74.0669C78.8392 74.0945 78.8253 74.1277 78.8212 74.1629C78.8172 74.198 78.8231 74.2336 78.8384 74.2655C78.8537 74.2974 78.8777 74.3243 78.9077 74.3431C78.9376 74.3619 78.9723 74.3719 79.0076 74.3719ZM72.2039 60.6919C72.2783 60.6923 72.3511 60.6701 72.4126 60.6281C72.5901 60.5094 89.9514 48.4806 77.7214 24.3156C77.6946 24.2632 77.6559 24.2177 77.6083 24.1829C77.5608 24.1481 77.5057 24.125 77.4476 24.1154C77.3894 24.1058 77.3298 24.11 77.2736 24.1276C77.2174 24.1452 77.1661 24.1758 77.1239 24.2169C76.9551 24.3819 60.3901 40.9231 71.2476 59.3581C71.3539 59.5356 71.5839 59.5956 71.7614 59.4906C71.9389 59.3856 71.9989 59.1556 71.8939 58.9769C62.2326 42.5706 74.9401 27.6606 77.2876 25.1281C83.2426 37.2044 81.5489 45.9919 79.0539 51.2606C76.3126 57.0519 72.0364 59.9756 71.9939 60.0044C71.9272 60.0492 71.8767 60.1142 71.8497 60.1899C71.8228 60.2656 71.8209 60.3479 71.8443 60.4248C71.8676 60.5016 71.9151 60.5689 71.9796 60.6168C72.0441 60.6647 72.1223 60.6906 72.2026 60.6906L72.2039 60.6919Z" fill="#B49E64"/>
<path d="M72.0234 60.1871C72.0528 60.187 72.0818 60.1801 72.1081 60.1668C72.1344 60.1535 72.1572 60.1342 72.1747 60.1105C72.1922 60.0868 72.2039 60.0594 72.2089 60.0303C72.2138 60.0013 72.212 59.9715 72.2034 59.9434C70.1271 53.3346 75.9159 34.4721 75.9746 34.2821C75.9887 34.2344 75.9835 34.183 75.9602 34.1391C75.9368 34.0951 75.8971 34.0621 75.8496 34.0471C75.8261 34.0398 75.8013 34.0372 75.7767 34.0394C75.7522 34.0417 75.7283 34.0487 75.7065 34.0602C75.6846 34.0717 75.6653 34.0874 75.6495 34.1064C75.6338 34.1254 75.6219 34.1473 75.6146 34.1709C75.3746 34.9509 69.7334 53.3359 71.8434 60.0559C71.8558 60.0939 71.8798 60.1271 71.9121 60.1507C71.9445 60.1742 71.9834 60.187 72.0234 60.1871ZM62.8159 46.6471C62.8847 46.647 62.9522 46.6281 63.011 46.5924C63.0698 46.5567 63.1177 46.5056 63.1496 46.4446C63.2184 46.3121 70.0034 32.9621 63.4296 21.1146C63.3983 21.058 63.3528 21.0105 63.2976 20.9767C63.2424 20.9428 63.1794 20.9239 63.1148 20.9216C63.0501 20.9194 62.9859 20.9339 62.9285 20.9637C62.8711 20.9936 62.8224 21.0379 62.7871 21.0921C62.6984 21.2284 54.0034 34.8196 61.9571 45.7809C62.0161 45.8607 62.1041 45.9141 62.2021 45.9296C62.3001 45.945 62.4003 45.9212 62.4809 45.8634C62.5208 45.8345 62.5546 45.798 62.5804 45.7561C62.6062 45.7141 62.6235 45.6675 62.6313 45.6189C62.639 45.5702 62.6372 45.5205 62.6257 45.4726C62.6143 45.4247 62.5935 45.3795 62.5646 45.3396C55.8034 36.0234 61.5796 24.6734 63.0821 22.0559C68.9309 33.3996 62.5496 45.9709 62.4834 46.0984C62.4537 46.1556 62.4393 46.2195 62.4416 46.2839C62.4438 46.3483 62.4626 46.411 62.4962 46.4661C62.5297 46.5211 62.5769 46.5665 62.6331 46.598C62.6893 46.6295 62.7527 46.646 62.8171 46.6459L62.8159 46.6471Z" fill="#B49E64"/>
<path d="M61.9328 45.2794C61.9743 45.2792 62.0147 45.2655 62.0476 45.2402C62.0806 45.2149 62.1044 45.1795 62.1153 45.1394C63.214 40.8844 63.054 29.7894 63.0528 29.6769C63.0518 29.6278 63.0316 29.5811 62.9966 29.5467C62.9615 29.5124 62.9144 29.4932 62.8653 29.4932H62.8628C62.8382 29.4935 62.8139 29.4987 62.7912 29.5084C62.7686 29.5181 62.7481 29.5322 62.7309 29.5498C62.7138 29.5675 62.7002 29.5883 62.6911 29.6112C62.682 29.6341 62.6775 29.6585 62.6778 29.6832C62.6803 29.7944 62.839 40.8394 61.7528 45.0457C61.7455 45.0734 61.7447 45.1024 61.7504 45.1305C61.7561 45.1586 61.7682 45.185 61.7857 45.2077C61.8032 45.2304 61.8257 45.2487 61.8514 45.2614C61.8771 45.2741 61.9054 45.2806 61.934 45.2807L61.9328 45.2794ZM83.8003 88.3457C83.8968 88.3458 83.9896 88.3087 84.0595 88.2421C84.1293 88.1755 84.1708 88.0846 84.1753 87.9882C84.1778 87.9389 84.1705 87.8897 84.1539 87.8433C84.1372 87.7969 84.1115 87.7543 84.0783 87.7179C84.045 87.6815 84.0049 87.652 83.9602 87.6313C83.9154 87.6105 83.8671 87.5988 83.8178 87.5969C62.9803 86.6344 58.4503 71.1057 57.7665 68.0919C78.1015 71.0882 82.6128 85.1657 83.0628 86.7732L83.7903 86.5907L83.4315 86.6957L83.7853 86.5707C83.3165 84.9007 78.5965 70.1682 57.344 67.2744C57.2862 67.2665 57.2273 67.2723 57.1721 67.2911C57.1169 67.31 57.0668 67.3415 57.0259 67.3832C56.985 67.4248 56.9544 67.4754 56.9365 67.531C56.9186 67.5865 56.9139 67.6455 56.9228 67.7032C56.9528 67.8982 60.1865 87.2569 83.7828 88.3469L83.8003 88.3457Z" fill="#B49E64"/>
<path d="M83.6568 87.6518C83.6919 87.6517 83.7262 87.6418 83.7559 87.6232C83.7856 87.6046 83.8094 87.578 83.8248 87.5465C83.8401 87.515 83.8464 87.4799 83.8428 87.445C83.8391 87.4101 83.8258 87.377 83.8043 87.3493C77.7668 79.6993 68.0681 76.2418 67.9718 76.2081C67.9254 76.1937 67.8752 76.1978 67.8318 76.2196C67.7884 76.2415 67.7552 76.2793 67.7392 76.3252C67.7231 76.3711 67.7255 76.4214 67.7458 76.4655C67.7661 76.5097 67.8028 76.5442 67.8481 76.5618C67.9443 76.5956 77.5431 80.0193 83.5093 87.5806C83.5269 87.6028 83.5493 87.6208 83.5749 87.6332C83.6004 87.6455 83.6285 87.6519 83.6568 87.6518ZM46.0356 60.6581C51.4006 60.6581 59.1106 59.2981 61.6793 51.9593C61.6957 51.9128 61.7027 51.8635 61.6999 51.8143C61.6971 51.765 61.6846 51.7168 61.6631 51.6724C61.6416 51.628 61.6116 51.5884 61.5747 51.5556C61.5378 51.5229 61.4947 51.4978 61.4481 51.4818C61.3542 51.4501 61.2517 51.4564 61.1624 51.4994C61.0731 51.5424 61.0043 51.6187 60.9706 51.7118C57.4381 61.8118 43.3868 59.9106 41.0181 59.5118C41.3756 56.8406 42.5618 54.7743 44.5468 53.3668C50.0393 49.4731 59.9193 51.7531 60.0193 51.7768C60.1161 51.7997 60.2181 51.7832 60.3027 51.7309C60.3873 51.6786 60.4477 51.5949 60.4706 51.4981C60.4935 51.4013 60.477 51.2994 60.4247 51.2147C60.3724 51.1301 60.2886 51.0697 60.1918 51.0468C59.7731 50.9468 49.8806 48.6668 44.1118 52.7543C41.8593 54.3518 40.5531 56.7143 40.2306 59.7781C40.2209 59.8706 40.246 59.9635 40.301 60.0386C40.356 60.1136 40.4369 60.1656 40.5281 60.1843C40.5906 60.1968 42.9168 60.6568 46.0343 60.6568L46.0356 60.6581Z" fill="#B49E64"/>
<path d="M47.7684 57.0469C47.7822 57.0469 47.7959 57.0469 47.8097 57.0419C48.2884 56.9332 59.5222 54.3282 60.7297 51.6394C60.75 51.5941 60.7515 51.5427 60.7339 51.4963C60.7164 51.4499 60.6811 51.4124 60.6359 51.3919C60.6136 51.3813 60.5894 51.3754 60.5647 51.3744C60.54 51.3734 60.5154 51.3774 60.4923 51.3862C60.4692 51.3949 60.4481 51.4082 60.4302 51.4253C60.4124 51.4424 60.3982 51.4629 60.3884 51.4857C59.2572 54.0057 47.8422 56.6494 47.7272 56.6769C47.6826 56.6874 47.6434 56.7139 47.6169 56.7513C47.5905 56.7888 47.5787 56.8346 47.5838 56.8802C47.5889 56.9257 47.6105 56.9678 47.6445 56.9986C47.6785 57.0293 47.7226 57.0465 47.7684 57.0469ZM50.9647 49.6144C51.0202 49.6145 51.0749 49.6023 51.1251 49.5787C51.1753 49.5551 51.2196 49.5207 51.2549 49.4779C51.2902 49.4351 51.3155 49.385 51.3291 49.3312C51.3427 49.2774 51.3442 49.2213 51.3334 49.1669C49.1459 37.8507 38.7647 37.0194 38.6609 37.0119C38.61 37.0089 38.5589 37.0162 38.5108 37.0334C38.4627 37.0506 38.4186 37.0773 38.3812 37.112C38.3437 37.1467 38.3136 37.1886 38.2927 37.2352C38.2718 37.2818 38.2606 37.3321 38.2597 37.3832C38.1797 47.8794 49.5784 49.4019 49.6934 49.4157C49.7433 49.4239 49.7944 49.422 49.8435 49.4101C49.8927 49.3981 49.9389 49.3763 49.9794 49.346C50.0199 49.3157 50.0539 49.2776 50.0793 49.2338C50.1046 49.19 50.1209 49.1416 50.127 49.0914C50.1332 49.0412 50.1291 48.9902 50.1151 48.9416C50.1011 48.893 50.0773 48.8478 50.0454 48.8086C50.0134 48.7694 49.9738 48.7371 49.929 48.7136C49.8842 48.6901 49.8351 48.6759 49.7847 48.6719C49.7572 48.6694 47.0134 48.3144 44.3259 46.7369C40.8872 44.7182 39.1009 41.7144 39.0122 37.8057C40.9122 38.0607 48.7359 39.6907 50.5947 49.3119C50.6113 49.3975 50.6571 49.4747 50.7244 49.5301C50.7917 49.5855 50.8762 49.6158 50.9634 49.6157L50.9647 49.6144Z" fill="#B49E64"/>
<path d="M50.4461 49.3408C50.4791 49.3406 50.5114 49.3317 50.5399 49.3151C50.5684 49.2985 50.592 49.2748 50.6084 49.2462C50.6249 49.2176 50.6335 49.1852 50.6336 49.1523C50.6336 49.1193 50.625 49.0869 50.6086 49.0583C48.2111 44.9583 43.6561 42.2646 43.6111 42.2383C43.5682 42.2131 43.517 42.206 43.4688 42.2185C43.4207 42.2311 43.3794 42.2623 43.3542 42.3052C43.329 42.3481 43.3219 42.3993 43.3345 42.4475C43.347 42.4956 43.3782 42.5369 43.4211 42.5621C43.4661 42.5883 47.9374 45.2346 50.2836 49.2483C50.3002 49.2766 50.324 49.3 50.3525 49.3163C50.381 49.3325 50.4133 49.341 50.4461 49.3408ZM50.9636 33.4746C51.0485 33.4747 51.1309 33.4459 51.1972 33.393C51.2635 33.34 51.3099 33.2661 51.3286 33.1833C56.0349 12.6333 40.9161 5.26456 40.7636 5.19206C40.7102 5.16671 40.6514 5.1545 40.5923 5.15645C40.5331 5.15841 40.4753 5.17448 40.4236 5.20331C40.3717 5.23164 40.3273 5.27193 40.294 5.32084C40.2608 5.36974 40.2396 5.42587 40.2324 5.48456C40.2099 5.65706 38.1699 22.8296 49.4361 32.1683C49.474 32.1997 49.5178 32.2234 49.5648 32.2379C49.6119 32.2525 49.6614 32.2576 49.7104 32.253C49.7594 32.2484 49.8071 32.2342 49.8507 32.2112C49.8942 32.1882 49.9328 32.1569 49.9642 32.1189C49.9957 32.081 50.0193 32.0373 50.0339 31.9902C50.0484 31.9432 50.0535 31.8937 50.0489 31.8447C50.0444 31.7956 50.0302 31.748 50.0071 31.7044C49.9841 31.6608 49.9528 31.6222 49.9149 31.5908C40.0874 23.4446 40.6824 9.11081 40.9236 6.12956C43.4249 7.56706 54.6899 15.1508 50.5999 33.0158C50.587 33.0707 50.5868 33.1278 50.5992 33.1829C50.6116 33.2379 50.6362 33.2894 50.6714 33.3335C50.7065 33.3776 50.7511 33.4133 50.8019 33.4377C50.8528 33.4621 50.9072 33.4747 50.9636 33.4746Z" fill="#B49E64"/>
<path d="M50.2266 32.5831C50.2391 32.5831 50.2516 32.5831 50.2628 32.5794C50.2871 32.5746 50.3101 32.5651 50.3307 32.5513C50.3512 32.5376 50.3689 32.52 50.3826 32.4994C50.3963 32.4789 50.4058 32.4558 50.4105 32.4315C50.4153 32.4073 50.4152 32.3823 50.4103 32.3581C47.3591 17.2244 45.3978 15.7081 45.3166 15.6519C45.2761 15.6229 45.2258 15.6111 45.1767 15.6192C45.1276 15.6273 45.0837 15.6545 45.0547 15.695C45.0257 15.7354 45.0139 15.7858 45.022 15.8349C45.0301 15.884 45.0574 15.9279 45.0978 15.9569C45.1816 16.0244 47.0653 17.6681 50.0416 32.4331C50.0502 32.4755 50.0732 32.5135 50.1067 32.5409C50.1402 32.5682 50.1833 32.5831 50.2266 32.5831ZM33.1728 28.2844C35.7728 28.2844 38.5291 27.3231 40.7403 24.2831C40.7726 24.2436 40.7966 24.198 40.8107 24.149C40.8247 24.0999 40.8287 24.0485 40.8222 23.9979C40.8157 23.9473 40.799 23.8986 40.773 23.8546C40.7471 23.8107 40.7124 23.7726 40.6712 23.7425C40.63 23.7124 40.5831 23.6911 40.5333 23.6798C40.4836 23.6685 40.432 23.6675 40.3819 23.6768C40.3317 23.6861 40.284 23.7055 40.2416 23.7339C40.1992 23.7623 40.163 23.799 40.1353 23.8419C37.8166 27.0281 34.6078 28.1756 30.5853 27.2456C28.1716 26.6869 26.1691 25.5094 25.4266 25.0331C29.9841 18.7681 39.0003 23.4594 39.0928 23.5069C39.1365 23.5334 39.1851 23.5507 39.2356 23.5578C39.2862 23.5649 39.3377 23.5615 39.3869 23.548C39.4362 23.5344 39.4821 23.511 39.522 23.4791C39.5618 23.4471 39.5948 23.4074 39.6187 23.3623C39.6427 23.3172 39.6572 23.2677 39.6613 23.2168C39.6654 23.1659 39.6592 23.1147 39.6428 23.0663C39.6264 23.0179 39.6004 22.9734 39.5662 22.9355C39.532 22.8975 39.4905 22.8669 39.4441 22.8456C39.3441 22.7931 29.4428 17.6431 24.5878 24.9256C24.534 25.0065 24.5137 25.1052 24.5312 25.2008C24.5486 25.2964 24.6026 25.3815 24.6816 25.4381C24.7453 25.4831 28.7328 28.2844 33.1728 28.2844Z" fill="#B49E64"/>
<path d="M33.1351 24.9234C35.3626 24.9234 38.4738 24.7334 39.9463 23.7672C39.9861 23.7392 40.0135 23.6969 40.0227 23.6491C40.0318 23.6014 40.0221 23.5519 39.9955 23.5112C39.9689 23.4705 39.9275 23.4417 39.8801 23.4309C39.8327 23.4202 39.7829 23.4282 39.7413 23.4534C37.4676 24.9472 30.7101 24.4734 30.6413 24.4697C30.5376 24.4584 30.4488 24.5397 30.4413 24.6434C30.4338 24.7472 30.5113 24.8359 30.6151 24.8434C30.7226 24.8509 31.7601 24.9234 33.1351 24.9234ZM38.6363 48.2972C38.7358 48.2998 38.8322 48.2629 38.9044 48.1944C38.9766 48.126 39.0187 48.0316 39.0213 47.9322C39.024 47.8327 38.987 47.7363 38.9186 47.6641C38.8501 47.5919 38.7558 47.5498 38.6563 47.5472C38.2413 47.5259 28.5963 46.8734 25.3863 34.1909C27.4863 34.3747 35.7088 35.5384 39.3601 42.5722C39.4058 42.6605 39.4848 42.7271 39.5796 42.7572C39.6745 42.7873 39.7774 42.7786 39.8657 42.7328C39.9541 42.6871 40.0206 42.6081 40.0508 42.5133C40.0809 42.4184 40.0721 42.3155 40.0263 42.2272C35.6363 33.7697 25.0163 33.4109 24.9101 33.4084C24.7601 33.3947 24.6826 33.4572 24.6101 33.5459C24.5737 33.5904 24.5481 33.6425 24.5351 33.6985C24.5221 33.7544 24.5221 33.8125 24.5351 33.8684C26.2126 41.0259 29.9388 44.5672 32.7701 46.2772C35.8513 48.1372 38.5063 48.2897 38.6188 48.2959H38.6376L38.6363 48.2972Z" fill="#B49E64"/>
<path d="M41.6615 48.3171C41.6997 48.3172 41.7371 48.3057 41.7686 48.2841C41.8001 48.2624 41.8242 48.2316 41.8378 48.1958C41.8552 48.1492 41.8533 48.0977 41.8327 48.0524C41.8121 48.0072 41.7743 47.972 41.7278 47.9546C36.4015 45.9571 30.8315 38.7908 30.7765 38.7183C30.7115 38.6371 30.594 38.6221 30.5128 38.6846C30.4315 38.7471 30.4165 38.8658 30.479 38.9471C30.5353 39.0196 36.1703 46.2696 41.5965 48.3046C41.6178 48.3119 41.6402 48.3157 41.6628 48.3158L41.6615 48.3171ZM32.2965 18.6846C32.386 18.6845 32.4726 18.6525 32.5407 18.5943C32.6087 18.5361 32.6538 18.4555 32.6678 18.3671C33.3278 14.0883 32.659 10.6896 30.6828 8.26582C27.964 4.93332 23.7953 4.69332 23.6203 4.68457C23.5666 4.68182 23.513 4.69065 23.4631 4.71046C23.4132 4.73027 23.3682 4.76061 23.3311 4.79939C23.2939 4.83818 23.2656 4.88451 23.248 4.93523C23.2304 4.98595 23.2239 5.03988 23.229 5.09333C24.0653 14.2858 30.889 17.8583 30.959 17.8933C31.0031 17.9186 31.0518 17.9346 31.1023 17.9404C31.1527 17.9462 31.2038 17.9418 31.2525 17.9273C31.3012 17.9127 31.3464 17.8885 31.3854 17.856C31.4244 17.8235 31.4564 17.7834 31.4795 17.7381C31.5025 17.6928 31.5162 17.6434 31.5195 17.5927C31.5229 17.542 31.5159 17.4912 31.499 17.4433C31.4821 17.3954 31.4557 17.3514 31.4213 17.314C31.387 17.2766 31.3453 17.2466 31.299 17.2258C31.234 17.1933 24.9978 13.9096 24.024 5.48207C25.1328 5.63832 28.0978 6.27832 30.1078 8.74708C31.9415 10.9983 32.5528 14.1971 31.9265 18.2521C31.9184 18.3055 31.9219 18.3601 31.9369 18.412C31.9518 18.4639 31.9778 18.512 32.0131 18.553C32.0483 18.5939 32.092 18.6268 32.1412 18.6493C32.1903 18.6718 32.2437 18.6834 32.2978 18.6833L32.2965 18.6846Z" fill="#B49E64"/>
<path d="M31.473 17.967L31.4993 17.9657C31.5237 17.9626 31.5472 17.9547 31.5685 17.9425C31.5898 17.9302 31.6084 17.9138 31.6233 17.8943C31.6382 17.8747 31.6491 17.8524 31.6552 17.8286C31.6614 17.8048 31.6628 17.78 31.6593 17.7557C30.9418 12.4295 28.303 10.057 28.1918 9.95822C28.1734 9.94181 28.152 9.92923 28.1287 9.92121C28.1054 9.9132 28.0808 9.90991 28.0562 9.91154C28.0317 9.91317 28.0077 9.91968 27.9856 9.9307C27.9636 9.94172 27.944 9.95703 27.928 9.97572C27.9117 9.99407 27.8992 10.0155 27.8911 10.0387C27.8831 10.0619 27.8798 10.0865 27.8813 10.111C27.8828 10.1355 27.8891 10.1595 27.8999 10.1815C27.9108 10.2036 27.9258 10.2233 27.9443 10.2395C27.9705 10.2632 30.5905 12.6295 31.2893 17.8057C31.2953 17.8506 31.3174 17.8917 31.3514 17.9216C31.3854 17.9515 31.429 17.968 31.4743 17.9682L31.473 17.967ZM13.0655 60.402C16.5955 60.402 28.5118 59.512 31.8355 47.7645C31.8625 47.6687 31.8504 47.566 31.8017 47.4792C31.7531 47.3923 31.672 47.3284 31.5761 47.3013C31.4803 47.2743 31.3777 47.2865 31.2909 47.3351C31.204 47.3838 31.14 47.4649 31.113 47.5607C27.743 59.4757 15.078 59.7232 12.5643 59.6457C15.3105 47.4732 29.6155 48.0095 29.753 48.017C29.9643 48.0182 30.1368 47.867 30.1455 47.6595C30.1543 47.452 29.9955 47.277 29.7893 47.267C29.633 47.257 14.368 46.6832 11.7393 59.9257C11.7286 59.9775 11.7292 60.0309 11.7408 60.0825C11.7524 60.134 11.7749 60.1825 11.8067 60.2247C11.8385 60.2669 11.8789 60.3019 11.9253 60.3273C11.9716 60.3527 12.0228 60.3679 12.0755 60.372C12.0993 60.3732 12.4593 60.4007 13.0668 60.4007L13.0655 60.402Z" fill="#B49E64"/>
<path d="M19.1127 56.1158C19.1371 56.1161 19.1613 56.1114 19.1839 56.1021C19.2564 56.0733 26.4027 53.0996 30.7727 47.7696C30.8041 47.7311 30.8191 47.6817 30.8141 47.6322C30.8092 47.5828 30.7849 47.5373 30.7464 47.5058C30.708 47.4743 30.6586 47.4594 30.6091 47.4643C30.5596 47.4693 30.5142 47.4936 30.4827 47.5321C26.1739 52.7896 19.1139 55.7271 19.0439 55.7558C19.0035 55.7722 18.9701 55.8021 18.9494 55.8404C18.9287 55.8788 18.922 55.9231 18.9304 55.9658C18.9389 56.0086 18.9619 56.0471 18.9956 56.0746C19.0293 56.1022 19.0716 56.1172 19.1152 56.1171L19.1127 56.1158ZM63.2839 52.9908C63.3709 52.9916 63.4555 52.9622 63.5232 52.9075C63.5909 52.8527 63.6374 52.7762 63.6548 52.691C63.6723 52.6057 63.6595 52.517 63.6188 52.4402C63.578 52.3633 63.5118 52.303 63.4314 52.2696C55.5777 48.9133 56.4377 44.5308 56.4789 44.3458C56.4993 44.2495 56.4809 44.149 56.4278 44.0661C56.3747 43.9832 56.2911 43.9245 56.1951 43.9027C56.0991 43.8808 55.9984 43.8976 55.9147 43.9494C55.831 44.0013 55.771 44.0839 55.7477 44.1796C55.6989 44.3883 54.6677 49.3408 63.1364 52.9596C63.183 52.9797 63.2332 52.9911 63.2839 52.9908ZM76.7139 69.3708C76.7759 69.3706 76.8368 69.3551 76.8913 69.3257C76.9458 69.2962 76.9921 69.2537 77.0262 69.2019C77.0602 69.1502 77.0809 69.0908 77.0864 69.0291C77.0919 68.9674 77.082 68.9053 77.0577 68.8483C73.6364 60.8633 66.2352 63.0133 66.1577 63.0371C66.0625 63.0661 65.9828 63.1317 65.936 63.2195C65.8893 63.3073 65.8793 63.41 65.9083 63.5052C65.9373 63.6003 66.0029 63.6801 66.0907 63.7268C66.1785 63.7736 66.2813 63.7836 66.3764 63.7546C66.6527 63.6708 73.2152 61.7858 76.3689 69.1446C76.3977 69.2119 76.4456 69.2693 76.5067 69.3098C76.5678 69.3502 76.6394 69.3719 76.7127 69.3721L76.7139 69.3708ZM56.0627 38.6721C56.1348 38.6717 56.2052 38.6506 56.2656 38.6112C56.326 38.5718 56.3738 38.5159 56.4032 38.4501C56.4326 38.3842 56.4424 38.3113 56.4314 38.2401C56.4205 38.1688 56.3892 38.1022 56.3414 38.0483C53.8639 35.2746 55.2739 30.5683 55.2889 30.5208C55.3052 30.4733 55.3118 30.423 55.3083 30.3729C55.3048 30.3228 55.2912 30.2739 55.2685 30.2292C55.2457 30.1844 55.2142 30.1447 55.1758 30.1123C55.1374 30.08 55.0929 30.0557 55.0449 30.0408C54.9969 30.026 54.9464 30.021 54.8965 30.026C54.8465 30.0311 54.7981 30.0461 54.754 30.0703C54.71 30.0944 54.6712 30.1271 54.6401 30.1665C54.6089 30.2059 54.586 30.2511 54.5727 30.2996C54.5077 30.5083 53.0189 35.4558 55.7827 38.5483C55.818 38.5875 55.8612 38.6189 55.9094 38.6404C55.9577 38.6619 56.0099 38.6731 56.0627 38.6733V38.6721ZM11.0602 16.7646C14.3177 16.7646 17.8952 15.5821 21.1777 11.9358C21.2125 11.8996 21.2398 11.8568 21.2578 11.8098C21.2758 11.7629 21.2841 11.7128 21.2824 11.6626C21.2806 11.6124 21.2688 11.563 21.2476 11.5175C21.2264 11.4719 21.1963 11.431 21.159 11.3973C21.1217 11.3637 21.078 11.3378 21.0305 11.3213C20.983 11.3049 20.9327 11.2981 20.8826 11.3015C20.8324 11.3048 20.7835 11.3182 20.7386 11.3409C20.6937 11.3635 20.6539 11.3949 20.6214 11.4333C16.9327 15.5308 12.4627 16.9071 7.32516 15.5296C4.18391 14.6858 1.73642 13.0121 0.913918 12.4008C3.71142 9.15455 7.71017 8.00955 12.7889 8.99205C16.7452 9.75705 19.9077 11.5958 19.9389 11.6133C20.0244 11.6576 20.1236 11.6674 20.2161 11.6408C20.3086 11.6142 20.3874 11.5531 20.4363 11.4702C20.4851 11.3872 20.5003 11.2887 20.4787 11.1948C20.4571 11.101 20.4004 11.0191 20.3202 10.9658C20.1877 10.8883 17.0302 9.05205 12.9514 8.2583C7.49767 7.19455 3.04266 8.5658 0.0839157 12.2233C0.0217438 12.3001 -0.00761414 12.3983 0.00221252 12.4966C0.0120468 12.5949 0.0602722 12.6854 0.136414 12.7483C0.212662 12.8108 5.10266 16.7633 11.0602 16.7633V16.7646Z" fill="#B49E64"/>
<path d="M6.86836 12.5371C9.18086 12.5371 17.5046 12.4783 20.5321 11.6508C20.556 11.6446 20.5784 11.6337 20.598 11.6187C20.6176 11.6037 20.634 11.5849 20.6462 11.5635C20.6584 11.542 20.6662 11.5184 20.6692 11.4939C20.6721 11.4694 20.6701 11.4445 20.6633 11.4208C20.6502 11.373 20.6186 11.3323 20.5755 11.3077C20.5324 11.283 20.4813 11.2765 20.4333 11.2896C17.0246 12.2208 6.38335 12.1633 6.2821 12.1608C6.23238 12.1607 6.18462 12.1803 6.14934 12.2153C6.11405 12.2503 6.09414 12.298 6.09398 12.3477C6.09381 12.3974 6.11341 12.4452 6.14846 12.4805C6.1835 12.5157 6.23113 12.5357 6.28085 12.5358L6.86836 12.5371ZM17.1283 10.2583C17.1956 10.2582 17.2615 10.24 17.3193 10.2057C17.3771 10.1714 17.4247 10.1222 17.4571 10.0633C18.6159 7.94957 18.8284 6.02832 18.0883 4.35457C16.6734 1.14957 12.3021 0.0570745 12.1171 0.0108245C12.0668 -0.00157522 12.0145 -0.00334374 11.9634 0.00563201C11.9124 0.0146078 11.8638 0.0341303 11.8207 0.0629522C11.7777 0.091774 11.7411 0.129261 11.7134 0.173018C11.6856 0.216775 11.6673 0.265839 11.6596 0.317075C11.6483 0.380825 10.7271 6.66332 16.1408 9.90707C16.3221 10.0108 16.5496 9.95582 16.6559 9.77833C16.7621 9.60083 16.7034 9.36957 16.5258 9.26332C12.2821 6.72207 12.2483 2.26207 12.3533 0.860825C13.4433 1.20707 16.3783 2.33332 17.4034 4.66082C18.0421 6.10957 17.8396 7.80582 16.8008 9.70332C16.7696 9.76042 16.7538 9.82465 16.7549 9.88972C16.756 9.95479 16.774 10.0184 16.8072 10.0744C16.8403 10.1304 16.8875 10.1768 16.944 10.2091C17.0006 10.2413 17.0633 10.2583 17.1283 10.2583ZM33.1896 19.2721C33.2692 19.272 33.3467 19.2467 33.4109 19.1997C33.4752 19.1526 33.5228 19.0864 33.5469 19.0105C33.5709 18.9347 33.5703 18.8531 33.5449 18.7776C33.5196 18.7022 33.4709 18.6368 33.4058 18.5908C27.1971 14.2183 20.9846 17.9521 20.9233 17.9908C20.8799 18.0159 20.8419 18.0494 20.8117 18.0893C20.7814 18.1293 20.7595 18.1749 20.7472 18.2235C20.7348 18.2721 20.7324 18.3227 20.7399 18.3722C20.7475 18.4218 20.7649 18.4693 20.7911 18.512C20.8174 18.5547 20.8519 18.5918 20.8927 18.6209C20.9335 18.65 20.9798 18.6707 21.0287 18.6816C21.0776 18.6926 21.1282 18.6936 21.1775 18.6847C21.2269 18.6757 21.2739 18.657 21.3158 18.6296C21.3746 18.5946 27.1808 15.1246 32.9733 19.2033C33.0366 19.248 33.1121 19.272 33.1896 19.2721ZM52.1246 34.6021C52.198 34.602 52.2698 34.5805 52.331 34.54C52.3923 34.4996 52.4403 34.4421 52.4692 34.3746C52.498 34.3072 52.5065 34.2327 52.4935 34.1605C52.4804 34.0883 52.4465 34.0214 52.3959 33.9683C47.1846 28.5058 40.1496 30.0271 40.0784 30.0433C39.984 30.0677 39.9029 30.1279 39.8522 30.211C39.8014 30.2942 39.785 30.3939 39.8065 30.4889C39.8279 30.584 39.8855 30.6669 39.967 30.7202C40.0486 30.7736 40.1477 30.793 40.2434 30.7746C40.3096 30.7583 46.9396 29.3358 51.8521 34.4858C51.887 34.5227 51.9291 34.552 51.9757 34.572C52.0224 34.5919 52.0726 34.6022 52.1233 34.6021H52.1246ZM24.1896 48.0496C24.2852 48.0444 24.3751 48.0028 24.4411 47.9334C24.507 47.8641 24.5439 47.7721 24.5442 47.6764C24.5446 47.5807 24.5083 47.4884 24.4428 47.4186C24.3773 47.3488 24.2876 47.3067 24.1921 47.3008C14.6159 47.2496 13.4446 41.8846 13.3996 41.6558C13.3903 41.6074 13.3716 41.5613 13.3444 41.5201C13.3172 41.479 13.2822 41.4437 13.2413 41.4161C13.2004 41.3886 13.1544 41.3694 13.1061 41.3597C13.0577 41.35 13.0079 41.35 12.9596 41.3596C12.9113 41.3687 12.8653 41.3873 12.8242 41.4143C12.7831 41.4412 12.7477 41.476 12.7201 41.5166C12.6925 41.5573 12.6731 41.603 12.6632 41.6511C12.6532 41.6992 12.6529 41.7488 12.6621 41.7971C12.7108 42.0508 13.9596 47.9958 24.1871 48.0496H24.1896ZM33.8133 48.0496C33.9097 48.048 34.0017 48.0094 34.0703 47.9418C34.1389 47.8742 34.1789 47.7828 34.182 47.6865C34.185 47.5902 34.1509 47.4965 34.0867 47.4247C34.0225 47.3529 33.9331 47.3085 33.8371 47.3008C24.9709 46.7533 22.1271 42.7933 22.0984 42.7533C22.0416 42.6726 21.9553 42.6175 21.8583 42.6C21.7612 42.5824 21.6611 42.6038 21.5797 42.6596C21.4983 42.7153 21.4421 42.8009 21.4234 42.8978C21.4047 42.9946 21.4249 43.095 21.4796 43.1771C21.6008 43.3521 24.5221 47.4758 33.7908 48.0483H33.8146L33.8133 48.0496ZM70.5471 58.0558C70.6277 58.0559 70.7061 58.03 70.7708 57.9819C70.8355 57.9339 70.883 57.8663 70.9063 57.7892C70.9296 57.712 70.9274 57.6295 70.9001 57.5536C70.8728 57.4778 70.8217 57.4129 70.7546 57.3683C67.1021 54.9421 64.2709 55.9133 64.1546 55.9558C64.0613 55.9892 63.985 56.0582 63.9423 56.1476C63.8997 56.2371 63.8942 56.3398 63.9271 56.4333C63.9602 56.5269 64.0291 56.6035 64.1186 56.6464C64.2081 56.6892 64.3109 56.6949 64.4046 56.6621C64.4309 56.6546 67.0196 55.7858 70.3396 57.9921C70.401 58.0331 70.4732 58.0562 70.5471 58.0558ZM84.3809 90.4608C84.4363 90.4608 84.4911 90.4485 84.5413 90.4247C84.5914 90.4009 84.6356 90.3663 84.6708 90.3234C84.706 90.2805 84.7311 90.2303 84.7446 90.1765C84.758 90.1226 84.7593 90.0665 84.7484 90.0121C82.9409 80.9496 85.8596 78.1121 85.8884 78.0846C85.9614 78.0175 86.005 77.9242 86.0094 77.8251C86.0139 77.726 85.9789 77.6292 85.9121 77.5558C85.8794 77.5192 85.8397 77.4895 85.7953 77.4683C85.751 77.4471 85.7029 77.435 85.6538 77.4325C85.6048 77.4301 85.5557 77.4374 85.5095 77.4541C85.4633 77.4707 85.4208 77.4964 85.3846 77.5296C85.2509 77.6508 82.1109 80.6158 84.0134 90.1583C84.0301 90.2435 84.0759 90.3202 84.143 90.3754C84.21 90.4305 84.2941 90.4607 84.3809 90.4608ZM82.2771 67.5633C82.3129 67.5635 82.348 67.5536 82.3784 67.5346C86.5096 64.8946 88.8159 56.5146 88.9134 56.1583C88.9264 56.1104 88.9199 56.0593 88.8953 56.0162C88.8707 55.9731 88.83 55.9415 88.7821 55.9283C88.7341 55.916 88.6831 55.923 88.6401 55.9478C88.5972 55.9725 88.5656 56.0131 88.5521 56.0608C88.5284 56.1458 86.1846 64.6558 82.1759 67.2183C82.1419 67.2403 82.1159 67.2726 82.1018 67.3105C82.0877 67.3484 82.0863 67.3898 82.0977 67.4286C82.1091 67.4674 82.1327 67.5015 82.165 67.5258C82.1974 67.55 82.2367 67.5632 82.2771 67.5633ZM83.6571 59.0008C83.7056 59.0008 83.7522 58.982 83.7871 58.9483C85.6184 57.1821 87.8259 50.7808 87.9196 50.5096C87.9277 50.4863 87.9311 50.4616 87.9296 50.437C87.9281 50.4123 87.9218 50.3883 87.911 50.3661C87.9002 50.3439 87.8852 50.3241 87.8667 50.3077C87.8482 50.2914 87.8267 50.2788 87.8034 50.2708C87.7564 50.2549 87.7051 50.2582 87.6606 50.28C87.6161 50.3017 87.582 50.3402 87.5659 50.3871C87.5421 50.4533 85.2946 56.9746 83.5271 58.6783C83.5002 58.7043 83.4817 58.7376 83.4739 58.7742C83.4661 58.8107 83.4693 58.8488 83.4833 58.8834C83.4973 58.9181 83.5213 58.9478 83.5523 58.9687C83.5832 58.9896 83.6197 59.0008 83.6571 59.0008ZM73.9034 41.3546C73.9229 41.3547 73.9423 41.3518 73.9608 41.3458C76.2896 40.5971 80.9359 34.5971 81.1321 34.3421C81.1946 34.2596 81.1796 34.1421 81.0984 34.0796C81.0171 34.0171 80.9009 34.0321 80.8346 34.1133C80.7871 34.1746 76.0646 40.2771 73.8459 40.9896C73.804 41.0038 73.7686 41.0323 73.7457 41.0701C73.7229 41.108 73.7141 41.1526 73.721 41.1963C73.7279 41.2399 73.7499 41.2797 73.7833 41.3087C73.8167 41.3377 73.8592 41.3539 73.9034 41.3546ZM72.5046 47.8233C72.5146 47.8233 72.5259 47.8233 72.5359 47.8208C77.8609 46.9158 81.7146 39.9821 81.8771 39.6883C81.897 39.645 81.8997 39.5957 81.8847 39.5504C81.8697 39.5052 81.8381 39.4673 81.7964 39.4443C81.7546 39.4213 81.7056 39.4151 81.6594 39.4267C81.6132 39.4383 81.573 39.4671 81.5471 39.5071C81.5096 39.5783 77.6171 46.5758 72.4721 47.4496C72.4478 47.4537 72.4246 47.4625 72.4038 47.4756C72.383 47.4887 72.365 47.5058 72.3508 47.5259C72.3366 47.546 72.3265 47.5687 72.3212 47.5928C72.3158 47.6168 72.3153 47.6416 72.3196 47.6658C72.327 47.7093 72.3494 47.7488 72.383 47.7774C72.4166 47.806 72.4592 47.8218 72.5033 47.8221L72.5046 47.8233ZM71.9984 51.9796C74.8396 51.9796 77.1484 49.4746 77.2471 49.3658C77.2636 49.3475 77.2764 49.3262 77.2846 49.3029C77.2929 49.2797 77.2964 49.2551 77.2952 49.2305C77.2939 49.2059 77.2878 49.1817 77.2772 49.1595C77.2666 49.1372 77.2517 49.1173 77.2333 49.1008C77.2153 49.0839 77.194 49.0708 77.1708 49.0623C77.1476 49.0537 77.1229 49.0499 77.0982 49.0511C77.0735 49.0523 77.0493 49.0584 77.027 49.0691C77.0047 49.0797 76.9847 49.0948 76.9684 49.1133C76.9446 49.1396 74.6708 51.6046 71.9946 51.6046L71.8633 51.6033C71.8136 51.6027 71.7657 51.6218 71.73 51.6565C71.6944 51.6912 71.674 51.7386 71.6733 51.7883C71.6727 51.8381 71.6918 51.886 71.7265 51.9216C71.7612 51.9573 71.8086 51.9777 71.8584 51.9783L71.9984 51.9796ZM62.8684 32.9458C62.8943 32.9461 62.92 32.9407 62.9438 32.9301C62.9675 32.9196 62.9887 32.904 63.0059 32.8846C63.0225 32.8664 63.0354 32.8452 63.0439 32.8221C63.0524 32.7989 63.0562 32.7744 63.0551 32.7497C63.0541 32.7251 63.0482 32.701 63.0378 32.6786C63.0274 32.6563 63.0127 32.6362 62.9946 32.6196C61.9359 31.6508 60.3096 27.8921 60.2934 27.8546C60.2844 27.8308 60.2707 27.8091 60.2532 27.7908C60.2356 27.7724 60.2145 27.7579 60.1911 27.748C60.1677 27.738 60.1426 27.733 60.1172 27.7331C60.0918 27.7331 60.0667 27.7384 60.0434 27.7485C60.0201 27.7586 59.9991 27.7733 59.9816 27.7917C59.9642 27.8102 59.9507 27.832 59.9419 27.8558C59.9331 27.8796 59.9293 27.905 59.9306 27.9304C59.9319 27.9557 59.9384 27.9805 59.9496 28.0033C60.0184 28.1608 61.6246 31.8746 62.7409 32.8971C62.7758 32.9286 62.8213 32.9459 62.8684 32.9458ZM62.7571 37.5746C62.799 37.5742 62.8395 37.5598 62.8724 37.5338C62.9052 37.5079 62.9285 37.4717 62.9385 37.431C62.9485 37.3903 62.9447 37.3475 62.9277 37.3092C62.9107 37.2709 62.8815 37.2394 62.8446 37.2196C61.8921 36.7246 59.9634 33.5033 59.3008 32.3033C59.2898 32.2802 59.2742 32.2596 59.255 32.2428C59.2357 32.226 59.2132 32.2133 59.1888 32.2055C59.1645 32.1976 59.1388 32.1949 59.1133 32.1974C59.0879 32.1999 59.0632 32.2076 59.0408 32.2199C59.0184 32.2323 58.9988 32.2492 58.9832 32.2694C58.9675 32.2897 58.9562 32.3129 58.9499 32.3377C58.9436 32.3625 58.9424 32.3883 58.9464 32.4136C58.9505 32.4388 58.9596 32.463 58.9734 32.4846C59.0721 32.6646 61.4246 36.9033 62.6709 37.5521C62.6976 37.5657 62.7271 37.573 62.7571 37.5733V37.5746ZM46.9084 19.5033C46.9458 19.5035 46.9823 19.4923 47.0133 19.4714C47.0443 19.4504 47.0683 19.4206 47.0821 19.3858C48.3884 16.1408 47.6408 11.6283 47.6083 11.4383C47.6053 11.4136 47.5971 11.3897 47.5843 11.3683C47.5715 11.3469 47.5544 11.3284 47.534 11.3139C47.5137 11.2994 47.4906 11.2894 47.4661 11.2843C47.4417 11.2793 47.4165 11.2794 47.3921 11.2846C47.3678 11.2887 47.3446 11.2975 47.3238 11.3106C47.303 11.3237 47.285 11.3408 47.2708 11.3609C47.2566 11.381 47.2465 11.4037 47.2412 11.4277C47.2358 11.4518 47.2353 11.4766 47.2396 11.5008C47.2471 11.5458 48.0009 16.1008 46.7359 19.2446C46.7244 19.273 46.7201 19.3038 46.7233 19.3343C46.7266 19.3648 46.7372 19.394 46.7544 19.4194C46.7715 19.4449 46.7946 19.4657 46.8217 19.4801C46.8488 19.4945 46.8789 19.502 46.9096 19.5021L46.9084 19.5033ZM48.2096 23.7971C48.2492 23.7973 48.2879 23.7846 48.3196 23.7608C49.2433 23.0883 50.1459 16.8221 50.2458 16.1096C50.2526 16.0603 50.2396 16.0105 50.2096 15.9708C50.1796 15.9312 50.1351 15.9051 50.0859 15.8983C50.037 15.8925 49.9877 15.9058 49.9484 15.9353C49.9091 15.9649 49.8826 16.0085 49.8746 16.0571C49.5059 18.6871 48.6983 23.0221 48.0996 23.4583C48.0678 23.4816 48.0441 23.5144 48.032 23.552C48.0199 23.5895 48.0199 23.63 48.0321 23.6675C48.0443 23.705 48.068 23.7377 48.0999 23.761C48.1317 23.7843 48.1701 23.7969 48.2096 23.7971ZM70.0621 77.4646C70.0911 77.4643 70.1197 77.4573 70.1457 77.4442C70.1716 77.4311 70.1942 77.4123 70.2117 77.3891C70.2292 77.3659 70.2411 77.339 70.2466 77.3105C70.2521 77.282 70.251 77.2526 70.2434 77.2246C68.9846 72.8858 64.0209 69.0096 63.8109 68.8471C63.7713 68.8168 63.7214 68.8033 63.672 68.8096C63.6226 68.8159 63.5777 68.8415 63.5471 68.8808C63.5169 68.9201 63.5034 68.9698 63.5098 69.019C63.5161 69.0682 63.5416 69.1129 63.5809 69.1433C63.6321 69.1821 68.6596 73.1083 69.8821 77.3296C69.8939 77.3685 69.9178 77.4026 69.9505 77.427C69.9831 77.4513 70.0214 77.4644 70.0621 77.4646ZM74.8246 80.0083C74.8735 80.0083 74.9204 79.9893 74.9554 79.9552C74.9905 79.9211 75.0108 79.8747 75.0121 79.8258C75.0621 77.9346 71.7908 72.4683 71.6521 72.2358C71.6264 72.1931 71.5848 72.1623 71.5364 72.1502C71.488 72.1381 71.4367 72.1458 71.394 72.1714C71.3512 72.1971 71.3204 72.2388 71.3083 72.2872C71.2963 72.3356 71.3039 72.3868 71.3296 72.4296C71.3633 72.4858 74.6859 78.0333 74.6371 79.8171C74.6364 79.8417 74.6406 79.8662 74.6494 79.8892C74.6583 79.9122 74.6715 79.9333 74.6885 79.9511C74.7054 79.969 74.7257 79.9834 74.7482 79.9934C74.7707 80.0034 74.795 80.0089 74.8196 80.0096L74.8246 80.0083ZM54.4971 59.0433C54.5235 59.0433 54.5496 59.0377 54.5737 59.0269C54.5979 59.0162 54.6194 59.0005 54.6371 58.9808C56.5746 56.8083 56.6421 54.3196 56.6446 54.2158C56.6446 54.1121 56.5646 54.0271 56.4608 54.0246C56.3358 54.0283 56.2721 54.1046 56.2696 54.2083C56.2696 54.2333 56.1984 56.6671 54.3571 58.7308C54.3329 58.7579 54.3171 58.7914 54.3115 58.8273C54.306 58.8632 54.311 58.9 54.326 58.9331C54.341 58.9662 54.3652 58.9942 54.3958 59.0138C54.4264 59.0333 54.4608 59.0436 54.4971 59.0433ZM50.9646 60.0671C50.9898 60.0672 51.0148 60.0622 51.038 60.0523C51.0613 60.0424 51.0822 60.0279 51.0996 60.0096C52.8346 58.1996 52.6159 55.6946 52.6059 55.5896C52.5999 55.5405 52.5753 55.4956 52.5371 55.4642C52.4989 55.4328 52.4501 55.4173 52.4008 55.4208C52.3763 55.4232 52.3525 55.4303 52.3307 55.4419C52.3089 55.4535 52.2896 55.4693 52.2739 55.4883C52.2583 55.5074 52.2465 55.5293 52.2393 55.5529C52.2321 55.5765 52.2297 55.6013 52.2321 55.6258C52.2346 55.6508 52.4421 58.0683 50.8284 59.7508C50.8111 59.7685 50.7975 59.7894 50.7884 59.8124C50.7794 59.8354 50.775 59.8599 50.7756 59.8846C50.7761 59.9093 50.7817 59.9337 50.7918 59.9562C50.802 59.9787 50.8165 59.999 50.8346 60.0158C50.8693 60.0498 50.916 60.0687 50.9646 60.0683V60.0671ZM45.9833 44.4533L46.1184 44.4521C46.1653 44.4477 46.2088 44.4257 46.2403 44.3907C46.2717 44.3556 46.2889 44.31 46.2882 44.2629C46.2876 44.2158 46.2693 44.1706 46.2369 44.1364C46.2045 44.1022 46.1604 44.0815 46.1133 44.0783H45.9833C43.7558 44.0783 40.0821 42.8021 40.0446 42.7883C39.9982 42.7739 39.948 42.778 39.9046 42.7999C39.8612 42.8217 39.828 42.8596 39.8119 42.9054C39.7959 42.9513 39.7983 43.0016 39.8186 43.0458C39.8389 43.0899 39.8756 43.1244 39.9209 43.1421C40.0771 43.1958 43.6933 44.4533 45.9833 44.4533ZM34.8933 43.6683C34.9383 43.6685 34.9818 43.6524 35.0158 43.6229C35.0498 43.5935 35.072 43.5528 35.0784 43.5083C35.4208 41.2008 34.4121 36.7546 34.3696 36.5658C34.3645 36.5416 34.3545 36.5187 34.3403 36.4984C34.3261 36.4782 34.3079 36.461 34.2869 36.4479C34.2659 36.4348 34.2425 36.4261 34.218 36.4223C34.1936 36.4185 34.1686 36.4197 34.1446 36.4258C34.1205 36.4313 34.0978 36.4414 34.0776 36.4557C34.0575 36.47 34.0404 36.4881 34.0273 36.509C34.0141 36.5299 34.0053 36.5532 34.0012 36.5775C33.9971 36.6019 33.9978 36.6268 34.0033 36.6508C34.0146 36.6958 35.0408 41.2171 34.7071 43.4546C34.6999 43.5036 34.7125 43.5535 34.742 43.5933C34.7715 43.6332 34.8156 43.6597 34.8646 43.6671L34.8933 43.6683ZM37.0021 45.5071C37.0387 45.507 37.0744 45.4964 37.105 45.4764C37.1357 45.4565 37.1598 45.428 37.1746 45.3946C37.5283 44.5846 37.0608 41.4883 37.0071 41.1383C36.9985 41.0895 36.9713 41.0459 36.9312 41.0168C36.8911 40.9876 36.8412 40.9752 36.7921 40.9821C36.7431 40.9898 36.6991 41.0166 36.6698 41.0567C36.6405 41.0967 36.6283 41.1468 36.6358 41.1958C36.7796 42.1183 37.0933 44.6421 36.8296 45.2446C36.8171 45.2732 36.812 45.3044 36.8146 45.3355C36.8173 45.3666 36.8276 45.3965 36.8447 45.4225C36.8619 45.4486 36.8852 45.47 36.9127 45.4847C36.9402 45.4995 36.9709 45.5072 37.0021 45.5071ZM21.8533 53.5621C22.5871 53.5621 23.3783 53.5096 24.2184 53.3808C24.2427 53.3771 24.2661 53.3687 24.2872 53.3559C24.3083 53.3432 24.3267 53.3264 24.3414 53.3066C24.356 53.2867 24.3666 53.2642 24.3725 53.2402C24.3784 53.2163 24.3795 53.1915 24.3758 53.1671C24.3722 53.1427 24.3637 53.1193 24.351 53.0982C24.3382 53.0771 24.3214 53.0587 24.3016 53.0441C24.2817 53.0294 24.2592 53.0189 24.2353 53.0129C24.2113 53.007 24.1865 53.0059 24.1621 53.0096C19.5958 53.7108 16.4246 52.0758 16.3933 52.0583C16.3715 52.0468 16.3476 52.0397 16.3231 52.0374C16.2985 52.0351 16.2737 52.0377 16.2501 52.045C16.2265 52.0523 16.2046 52.0642 16.1857 52.08C16.1667 52.0958 16.1511 52.1152 16.1396 52.1371C16.1165 52.1811 16.1117 52.2324 16.1262 52.2799C16.1407 52.3274 16.1734 52.3672 16.2171 52.3908C16.3271 52.4483 18.4846 53.5621 21.8533 53.5621ZM24.4833 51.6671C25.3133 51.6671 26.1946 51.6058 26.9746 51.4208C27.0228 51.409 27.0643 51.3785 27.0901 51.3361C27.1159 51.2937 27.1238 51.2428 27.1121 51.1946C27.107 51.1702 27.097 51.1472 27.0827 51.1269C27.0684 51.1066 27.0501 51.0894 27.0289 51.0764C27.0077 51.0634 26.9841 51.0549 26.9595 51.0514C26.9349 51.0478 26.9098 51.0493 26.8858 51.0558C24.6796 51.5808 21.4858 51.0583 21.4509 51.0533C21.4018 51.0452 21.3515 51.0569 21.3111 51.0859C21.2706 51.1148 21.2433 51.1586 21.2352 51.2077C21.2271 51.2568 21.2388 51.307 21.2678 51.3475C21.2967 51.3879 21.3405 51.4152 21.3896 51.4233C21.4771 51.4383 22.8821 51.6671 24.4833 51.6671ZM53.8209 55.3533C53.8584 55.3531 53.8951 55.3415 53.926 55.3202C53.957 55.2989 53.9808 55.2688 53.9944 55.2337C54.008 55.1987 54.0108 55.1604 54.0023 55.1237C53.9939 55.0871 53.9747 55.0539 53.9471 55.0283C51.1208 52.4046 44.9221 52.6371 44.6633 52.6458C44.6136 52.6467 44.5663 52.6672 44.5317 52.7029C44.4971 52.7387 44.4781 52.7867 44.479 52.8364C44.4798 52.8862 44.5004 52.9335 44.5361 52.9681C44.5718 53.0027 44.6199 53.0217 44.6696 53.0208H44.6771C44.7471 53.0146 50.9771 52.7858 53.6921 55.3033C53.7265 55.3359 53.7735 55.3538 53.8209 55.3533ZM50.9646 56.2196C51.0004 56.2197 51.0356 56.2096 51.0658 56.1904C51.0961 56.1712 51.1202 56.1437 51.1353 56.1112C51.1504 56.0787 51.1559 56.0426 51.1512 56.0071C51.1464 55.9716 51.1315 55.9382 51.1083 55.9108C50.4771 55.1671 47.6459 54.5196 47.3259 54.4483C47.2773 54.4375 47.2264 54.4465 47.1845 54.4732C47.1425 54.5 47.1129 54.5423 47.1021 54.5908C47.0913 54.6394 47.1003 54.6903 47.127 54.7322C47.1537 54.7742 47.196 54.8038 47.2446 54.8146C48.0808 55.0008 50.3559 55.6046 50.8221 56.1533C50.8395 56.1742 50.8613 56.1909 50.886 56.2023C50.9106 56.2138 50.9374 56.2197 50.9646 56.2196ZM35.4283 24.8433C35.4584 24.8434 35.4881 24.8363 35.5148 24.8226C35.5415 24.8088 35.5646 24.7889 35.582 24.7644C35.5994 24.7399 35.6106 24.7115 35.6148 24.6818C35.6189 24.652 35.6159 24.6217 35.6059 24.5933C35.2234 23.5271 30.8996 21.5858 30.4083 21.3683C30.3859 21.3582 30.3617 21.3527 30.337 21.352C30.3124 21.3514 30.2879 21.3557 30.265 21.3647C30.2421 21.3736 30.2211 21.3871 30.2035 21.4043C30.1858 21.4214 30.1717 21.4419 30.1621 21.4646C30.1419 21.51 30.1405 21.5616 30.1584 21.608C30.1762 21.6544 30.2117 21.6918 30.2571 21.7121C32.0571 22.5096 35.0071 24.0308 35.2521 24.7196C35.2651 24.7562 35.2891 24.788 35.3209 24.8104C35.3527 24.8328 35.3907 24.8447 35.4296 24.8446L35.4283 24.8433Z" fill="#B49E64"/>
<path d="M11.96 12.4557C11.9964 12.4556 12.0319 12.4452 12.0625 12.4257C12.1041 12.3984 12.1333 12.3557 12.1436 12.307C12.1539 12.2583 12.1445 12.2075 12.1175 12.1657C10.7963 10.1294 6.52629 8.54694 6.3463 8.48194C6.32326 8.4732 6.29871 8.46915 6.27409 8.47004C6.24946 8.47092 6.22525 8.47671 6.20289 8.48707C6.18053 8.49744 6.16048 8.51216 6.14389 8.53038C6.1273 8.54861 6.11452 8.56996 6.1063 8.59319C6.08936 8.63977 6.09154 8.69118 6.11239 8.73615C6.13324 8.78113 6.17105 8.81602 6.21755 8.83319C6.2613 8.84944 10.5513 10.4382 11.8038 12.3694C11.8209 12.3956 11.8442 12.4171 11.8717 12.4319C11.8993 12.4468 11.93 12.4545 11.9613 12.4544L11.96 12.4557ZM15.8063 12.2707C15.8311 12.271 15.8558 12.2663 15.8788 12.2569C15.9247 12.2379 15.9612 12.2013 15.9801 12.1554C15.9991 12.1095 15.9991 12.0579 15.98 12.0119C15.4825 10.8057 11.7363 8.35444 11.5788 8.25069C11.5371 8.22361 11.4864 8.21406 11.4378 8.22412C11.3891 8.23419 11.3463 8.26305 11.3188 8.30444C11.2918 8.34627 11.2825 8.39706 11.2928 8.44576C11.3031 8.49445 11.3322 8.53711 11.3738 8.56444C12.4313 9.25444 15.2575 11.2432 15.6338 12.1544C15.6479 12.1889 15.672 12.2183 15.703 12.239C15.7339 12.2597 15.7691 12.2708 15.8063 12.2707ZM28.785 11.0894C28.8236 11.0894 28.8612 11.0775 28.8927 11.0554C28.9242 11.0332 28.9482 11.0019 28.9613 10.9657C29.5325 9.38819 28.7763 6.88069 28.7438 6.77444C28.7292 6.7267 28.6963 6.68671 28.6522 6.66327C28.6081 6.63983 28.5565 6.63485 28.5088 6.64944C28.4611 6.66403 28.4211 6.69698 28.3976 6.74105C28.3742 6.78512 28.3692 6.8367 28.3838 6.88444C28.3913 6.90944 29.1363 9.37819 28.6088 10.8382C28.5986 10.8665 28.5953 10.8969 28.5993 10.9267C28.6032 10.9565 28.6143 10.985 28.6316 11.0096C28.6489 11.0343 28.6719 11.0544 28.6986 11.0683C28.7253 11.0822 28.7549 11.0894 28.785 11.0894ZM30.0863 13.2094C30.1345 13.209 30.1808 13.1907 30.2163 13.1582C31.42 12.0169 31.2225 9.49194 31.2138 9.38569C31.2097 9.33904 31.1884 9.2956 31.1539 9.26391C31.1194 9.23222 31.0744 9.21457 31.0275 9.21444H31.0113C30.9868 9.21649 30.9629 9.22335 30.941 9.23464C30.9191 9.24592 30.8996 9.26141 30.8837 9.28021C30.8678 9.29902 30.8558 9.32077 30.8483 9.34423C30.8408 9.36769 30.838 9.3924 30.84 9.41694C30.8425 9.44194 31.03 11.8682 29.9575 12.8857C29.9303 12.9115 29.9114 12.9448 29.9033 12.9815C29.8952 13.0181 29.8983 13.0564 29.9121 13.0912C29.926 13.1261 29.95 13.156 29.9811 13.1771C30.0121 13.1982 30.0488 13.2094 30.0863 13.2094ZM17.6138 9.05319H17.6363C17.6858 9.04724 17.7309 9.02194 17.7618 8.98283C17.7928 8.94372 17.8069 8.89397 17.8013 8.84444C17.3913 5.33194 14.7213 3.55944 14.6075 3.48569C14.5656 3.45905 14.5149 3.44989 14.4663 3.46017C14.4177 3.47045 14.3751 3.49935 14.3475 3.54069C14.3206 3.58252 14.3112 3.63331 14.3215 3.68201C14.3318 3.7307 14.3609 3.77336 14.4025 3.80069C14.4288 3.81819 17.0388 5.55569 17.4275 8.88819C17.433 8.93371 17.455 8.97563 17.4894 9.00604C17.5237 9.03644 17.5679 9.05321 17.6138 9.05319ZM44.8013 20.2994C44.8449 20.2989 44.8869 20.2832 44.9202 20.255C44.9535 20.2269 44.9759 20.188 44.9836 20.145C44.9913 20.1021 44.9838 20.0579 44.9624 20.0199C44.941 19.9819 44.907 19.9526 44.8663 19.9369C43.7209 19.5098 42.6464 18.9127 41.6788 18.1657C41.6402 18.1345 41.5909 18.1198 41.5415 18.1247C41.4922 18.1296 41.4467 18.1538 41.415 18.1919C41.3834 18.2302 41.3683 18.2795 41.373 18.329C41.3777 18.3784 41.4018 18.424 41.44 18.4557C42.4388 19.2319 43.551 19.8499 44.7375 20.2882C44.7584 20.2957 44.7791 20.2995 44.8013 20.2994ZM48.6175 25.3757C48.6654 25.3756 48.7114 25.3572 48.7461 25.3244C48.7808 25.2915 48.8017 25.2466 48.8044 25.1988C48.8071 25.1511 48.7915 25.1041 48.7607 25.0675C48.7299 25.0309 48.6863 25.0075 48.6388 25.0019C46.3488 24.7357 43.1838 22.6519 43.1513 22.6319C43.1308 22.6183 43.1078 22.6089 43.0836 22.6041C43.0594 22.5994 43.0346 22.5995 43.0104 22.6043C42.9863 22.6092 42.9633 22.6188 42.9429 22.6325C42.9225 22.6463 42.9049 22.6639 42.8913 22.6844C42.8777 22.705 42.8682 22.728 42.8635 22.7521C42.8588 22.7763 42.8588 22.8012 42.8637 22.8253C42.8686 22.8495 42.8782 22.8724 42.8919 22.8928C42.9056 22.9133 42.9233 22.9308 42.9438 22.9444C43.0763 23.0319 46.2163 25.0994 48.595 25.3744L48.6175 25.3757Z" fill="#B49E64"/>
</svg>
